<svg width="20" height="20" viewBox="0 0 20 20" fill="none" xmlns="http://www.w3.org/2000/svg">
<g id="mdi:github">
<path id="Vector" d="M9.99996 1.66669C8.90561 1.66669 7.82198 1.88224 6.81093 2.30102C5.79988 2.71981 4.88122 3.33364 4.1074 4.10746C2.5446 5.67027 1.66663 7.78988 1.66663 10C1.66663 13.6834 4.05829 16.8084 7.36663 17.9167C7.78329 17.9834 7.91663 17.725 7.91663 17.5V16.0917C5.60829 16.5917 5.11663 14.975 5.11663 14.975C4.73329 14.0084 4.19163 13.75 4.19163 13.75C3.43329 13.2334 4.24996 13.25 4.24996 13.25C5.08329 13.3084 5.52496 14.1084 5.52496 14.1084C6.24996 15.375 7.47496 15 7.94996 14.8C8.02496 14.2584 8.24163 13.8917 8.47496 13.6834C6.62496 13.475 4.68329 12.7584 4.68329 9.58335C4.68329 8.65835 4.99996 7.91669 5.54163 7.32502C5.45829 7.11669 5.16663 6.25002 5.62496 5.12502C5.62496 5.12502 6.32496 4.90002 7.91663 5.97502C8.57496 5.79169 9.29163 5.70002 9.99996 5.70002C10.7083 5.70002 11.425 5.79169 12.0833 5.97502C13.675 4.90002 14.375 5.12502 14.375 5.12502C14.8333 6.25002 14.5416 7.11669 14.4583 7.32502C15 7.91669 15.3166 8.65835 15.3166 9.58335C15.3166 12.7667 13.3666 13.4667 11.5083 13.675C11.8083 13.9334 12.0833 14.4417 12.0833 15.2167V17.5C12.0833 17.725 12.2166 17.9917 12.6416 17.9167C15.95 16.8 18.3333 13.6834 18.3333 10C18.3333 8.90567 18.1177 7.82204 17.699 6.81099C17.2802 5.79994 16.6663 4.88129 15.8925 4.10746C15.1187 3.33364 14.2 2.71981 13.189 2.30102C12.1779 1.88224 11.0943 1.66669 9.99996 1.66669Z" fill="white"/>
</g>
</svg>
